<?xml version="1.0" encoding="UTF-8"?>
<svg id="Layer_2" data-name="Layer 2" xmlns="http://www.w3.org/2000/svg" viewBox="0 0 205.2 387.84">
  <defs>
    <style>
      .cls-1 {
        fill: #fcfcfc;
      }

      .cls-2 {
        fill: #cecece;
      }

      .cls-3 {
        fill: #e5e5e5;
      }

      .cls-4 {
        fill: none;
        stroke: #e5e5e5;
        stroke-width: 1.26px;
      }

      .cls-4, .cls-5 {
        stroke-miterlimit: 10;
      }

      .cls-5 {
        stroke: #f5f5f5;
      }

      .cls-5, .cls-6 {
        fill: #f5f5f5;
      }
    </style>
  </defs>
  <g id="Layer_1-2" data-name="Layer 1">
    <path class="cls-6" d="M14.49,10.25c35.45-.18,63.11-5.21,93.64-10.25-3,3-4.14,7.72-3.38,10.25H14.49Z"/>
    <path class="cls-2" d="M13.05,13.12c35.45-.18,63.11-5.21,93.64-10.25-3,3-4.14,7.72-3.38,10.25H13.05Z"/>
    <path class="cls-6" d="M16.58,156.04c35.45-.18,63.11-5.21,93.64-10.25-3,3-6.51,8.39-5.75,10.92l-87.89-.67Z"/>
    <path class="cls-2" d="M14.78,157.42c35.45-.18,63.11-5.21,93.64-10.25-3,3-5.07,8.64-4.31,11.17l-89.33-.93Z"/>
    <path class="cls-6" d="M93.64,266.2c-35.45-.18-63.11-5.21-93.64-10.25,3,3,4.14,7.72,3.38,10.25h90.26Z"/>
    <path class="cls-2" d="M95.08,269.08c-35.45-.18-63.11-5.21-93.64-10.25,3,3,4.14,7.72,3.38,10.25h90.26Z"/>
    <path class="cls-5" d="M104.75,10.25H4.8v376h99.95v-199.9c0-4.62-2.96-70.04-2.96-119.27,0-32.84,2.96-56.83,2.96-56.83Z"/>
    <polygon class="cls-5" points="204.7 214.11 109.06 214.11 104.75 386.25 204.7 386.25 204.7 214.11"/>
    <polygon class="cls-3" points="47.54 40.58 4.83 42.34 4.83 38.83 47.54 40.58 47.54 40.58"/>
    <path class="cls-3" d="M56.43,92.91c-14.22.6-28.5,1.12-42.71,0,14.21-1.12,28.48-.6,42.71,0h0Z"/>
    <path class="cls-3" d="M97.48,121.03c-14.22.6-28.5,1.12-42.71,0,14.21-1.12,28.48-.6,42.71,0h0Z"/>
    <path class="cls-3" d="M47.54,165.17c-14.22.6-28.5,1.12-42.71,0,14.21-1.12,28.48-.6,42.71,0h0Z"/>
    <path class="cls-3" d="M84.31,236.36c-14.22.6-28.5,1.12-42.71,0,14.21-1.12,28.48-.6,42.71,0h0Z"/>
    <path class="cls-3" d="M63.59,303.51c-14.22.6-28.5,1.12-42.71,0,14.21-1.12,28.48-.6,42.71,0h0Z"/>
    <path class="cls-3" d="M91.68,370.65c-14.22.6-28.5,1.12-42.71,0,14.21-1.12,28.48-.6,42.71,0h0Z"/>
    <polygon class="cls-3" points="49.51 129.04 4.83 130.79 4.83 127.29 49.51 129.04 49.51 129.04"/>
    <polygon class="cls-3" points="35.08 221.53 4.83 223.28 4.83 219.78 35.08 221.53 35.08 221.53"/>
    <polygon class="cls-3" points="35.08 261.08 4.83 262.83 4.83 259.33 35.08 261.08 35.08 261.08"/>
    <polygon class="cls-3" points="41.6 347.19 4.83 348.94 4.83 345.44 41.6 347.19 41.6 347.19"/>
    <polygon class="cls-3" points="81.11 269.08 105.01 267.33 105.01 270.83 81.11 269.08 81.11 269.08"/>
    <polygon class="cls-3" points="64.08 326.16 104.26 324.4 104.26 327.91 64.08 326.16 64.08 326.16"/>
    <polygon class="cls-3" points="80.03 174.07 104.71 172.31 104.71 175.82 80.03 174.07 80.03 174.07"/>
    <polygon class="cls-3" points="79.34 149.62 104.02 147.87 104.02 151.37 79.34 149.62 79.34 149.62"/>
    <polygon class="cls-3" points="68.58 97.02 102.5 95.27 102.5 98.77 68.58 97.02 68.58 97.02"/>
    <polygon class="cls-3" points="64.23 55.78 102.22 54.02 102.22 57.53 64.23 55.78 64.23 55.78"/>
    <polygon class="cls-3" points="68.16 10.25 104.75 8.49 104.75 12 68.16 10.25 68.16 10.25"/>
    <g>
      <path class="cls-1" d="M18.08,200.82s8.38-.47,10.65,5.92c7.81-5.63,11.09-3.79,17.86-3.83"/>
      <path class="cls-3" d="M18.08,200.82c4.49-.85,9.9,1,11.56,5.59,0,0-1.47-.46-1.47-.46,3.82-3.06,8.87-4.8,13.75-3.78,0,0,4.67.73,4.67.73-3.14.55-6.38.18-9.26.78-3.35.64-6.24,2.61-9.03,4.52,0,0-.48-1.14-.48-1.14-1.34-4.07-5.8-5.71-9.74-6.24h0Z"/>
    </g>
    <g>
      <path class="cls-1" d="M90.38,255.88s-8.38-.47-10.65,5.92c-7.81-5.63-11.09-3.79-17.86-3.83"/>
      <path class="cls-3" d="M90.38,255.88c-3.94.53-8.4,2.17-9.74,6.24,0,0-.48,1.14-.48,1.14-2.78-1.91-5.68-3.88-9.03-4.52-2.88-.6-6.12-.23-9.26-.78l4.67-.73c4.88-1.02,9.93.73,13.75,3.78,0,0-1.47.46-1.47.46,1.66-4.6,7.08-6.44,11.56-5.59h0Z"/>
    </g>
    <g>
      <path class="cls-1" d="M85.12,67.09s-8.38-.47-10.65,5.92c-7.81-5.63-11.09-3.79-17.86-3.83"/>
      <path class="cls-3" d="M85.12,67.09c-3.94.53-8.4,2.17-9.74,6.24,0,0-.48,1.14-.48,1.14-2.78-1.91-5.68-3.88-9.03-4.52-2.88-.6-6.12-.23-9.26-.78l4.67-.73c4.88-1.02,9.93.73,13.75,3.78,0,0-1.47.46-1.47.46,1.66-4.6,7.08-6.44,11.56-5.59h0Z"/>
    </g>
    <path class="cls-3" d="M156.61,217.49c-14.22.6-28.5,1.12-42.71,0,14.21-1.12,28.48-.6,42.71,0h0Z"/>
    <path class="cls-3" d="M197.66,245.62c-14.22.6-28.5,1.12-42.71,0,14.21-1.12,28.48-.6,42.71,0h0Z"/>
    <path class="cls-3" d="M151.16,289.75c-14.22.6-28.5,1.12-42.71,0,14.21-1.12,28.48-.6,42.71,0h0Z"/>
    <path class="cls-3" d="M184.49,360.94c-14.22.6-28.5,1.12-42.71,0,14.21-1.12,28.48-.6,42.71,0h0Z"/>
    <polygon class="cls-3" points="153.13 253.62 108.45 255.38 108.45 251.87 153.13 253.62 153.13 253.62"/>
    <polygon class="cls-3" points="135.26 346.11 105.01 347.87 105.01 344.36 135.26 346.11 135.26 346.11"/>
    <polygon class="cls-3" points="138.7 230.29 108.45 232.04 108.45 228.54 138.7 230.29 138.7 230.29"/>
    <polygon class="cls-3" points="179.76 298.65 204.43 296.9 204.43 300.4 179.76 298.65 179.76 298.65"/>
    <polygon class="cls-3" points="170.51 222.61 204.43 220.85 204.43 224.36 170.51 222.61 170.51 222.61"/>
    <g>
      <path class="cls-1" d="M118.26,325.41s8.38-.47,10.65,5.92c7.81-5.63,11.09-3.79,17.86-3.83"/>
      <path class="cls-3" d="M118.26,325.41c4.49-.85,9.9,1,11.56,5.59,0,0-1.47-.46-1.47-.46,3.82-3.06,8.87-4.8,13.75-3.78,0,0,4.67.73,4.67.73-3.14.55-6.38.18-9.26.78-3.35.64-6.24,2.61-9.03,4.52,0,0-.48-1.14-.48-1.14-1.34-4.07-5.8-5.71-9.74-6.24h0Z"/>
    </g>
    <g>
      <path class="cls-1" d="M190.55,380.46s-8.38-.47-10.65,5.92c-7.81-5.63-11.09-3.79-17.86-3.83"/>
      <path class="cls-3" d="M190.55,380.46c-3.94.53-8.4,2.17-9.74,6.24,0,0-.48,1.14-.48,1.14-2.78-1.91-5.68-3.88-9.03-4.52-2.88-.6-6.12-.23-9.26-.78l4.67-.73c4.88-1.02,9.93.73,13.75,3.78,0,0-1.47.46-1.47.46,1.66-4.6,7.08-6.44,11.56-5.59h0Z"/>
    </g>
    <line class="cls-4" x1="109.06" y1="214.11" x2="104.75" y2="386.25"/>
  </g>
</svg>